<svg width="100" height="100" viewBox="0 0 100 100" fill="none" xmlns="http://www.w3.org/2000/svg">
<circle cx="50" cy="50" r="50" fill="white"/>
<g clip-path="url(#clip0_3761_6374)">
<path fill-rule="evenodd" clip-rule="evenodd" d="M50 0C22.4301 0 0 22.4301 0 50C0 77.5699 22.4295 100 50 100C77.5705 100 100 77.5701 100 50C100 22.4299 77.5703 0 50 0ZM40.2498 22.3299C40.2499 21.8989 40.4211 21.4855 40.7258 21.1806C41.0305 20.8758 41.4438 20.7044 41.8748 20.7041H58.1248C58.556 20.7051 58.9692 20.877 59.2739 21.1821C59.5785 21.4872 59.7498 21.9006 59.7502 22.3318V26.3508H40.2498V22.3299ZM66.9686 76.9703C66.9271 77.6042 66.6448 78.1982 66.1796 78.6307C65.7144 79.0633 65.1014 79.3016 64.4662 79.2969H35.3451C34.7102 79.2952 34.0994 79.0534 33.6354 78.62C33.1715 78.1866 32.8886 77.5937 32.8438 76.9603L30.3529 40.5078H69.6266L66.9676 76.9703H66.9686ZM73.4414 37.207H26.5586V33.4299C26.5594 32.4283 26.9576 31.468 27.6658 30.7598C28.3739 30.0516 29.3342 29.6533 30.3357 29.6523L69.6637 29.6512C70.6653 29.6526 71.6255 30.0512 72.3335 30.7596C73.0416 31.4681 73.4397 32.4285 73.4406 33.4301V37.2066L73.4414 37.207ZM42.4512 70.607V47.4609C42.4513 47.0232 42.6254 46.6035 42.935 46.2941C43.2446 45.9847 43.6644 45.811 44.1021 45.8111C44.5399 45.8113 44.9596 45.9853 45.269 46.2949C45.5784 46.6046 45.7521 47.0244 45.752 47.4621V70.607C45.7553 70.8259 45.7151 71.0433 45.6337 71.2464C45.5523 71.4496 45.4312 71.6346 45.2776 71.7906C45.1241 71.9465 44.941 72.0704 44.7391 72.1549C44.5372 72.2395 44.3205 72.283 44.1016 72.283C43.8827 72.283 43.666 72.2395 43.464 72.1549C43.2621 72.0704 43.0791 71.9465 42.9255 71.7906C42.7719 71.6346 42.6509 71.4496 42.5694 71.2464C42.488 71.0433 42.4478 70.8259 42.4512 70.607ZM54.227 70.607V47.4609C54.2338 47.0276 54.4107 46.6144 54.7196 46.3104C55.0285 46.0065 55.4446 45.8362 55.8779 45.8363C56.3113 45.8365 56.7272 46.0071 57.0359 46.3112C57.3446 46.6154 57.5212 47.0288 57.5277 47.4621V70.608C57.5325 70.8278 57.4934 71.0463 57.4126 71.2507C57.3318 71.4551 57.211 71.6413 57.0572 71.7984C56.9035 71.9555 56.72 72.0804 56.5174 72.1656C56.3147 72.2508 56.0972 72.2947 55.8773 72.2947C55.6575 72.2947 55.4399 72.2508 55.2373 72.1656C55.0347 72.0804 54.8512 71.9555 54.6974 71.7984C54.5437 71.6413 54.4229 71.4551 54.3421 71.2507C54.2613 71.0463 54.2222 70.8278 54.227 70.608V70.607Z" fill="#FC0005"/>
</g>
<defs>
<clipPath id="clip0_3761_6374">
<rect width="100" height="100" fill="white"/>
</clipPath>
</defs>
</svg>
