<svg xmlns="http://www.w3.org/2000/svg" version="1.1" xmlns:xlink="http://www.w3.org/1999/xlink" width="512" height="512" x="0" y="0" viewBox="0 0 64 64" style="enable-background:new 0 0 512 512" xml:space="preserve" class=""><g><path d="M41.43 42.71H38V26.99c0-.55-.44-1-1-1H27c-.56 0-1 .45-1 1v15.72h-3.43c-.41 0-.78.25-.93.63s-.06.81.24 1.09l9.44 8.85c.19.18.43.27.68.27s.49-.09.68-.27l9.44-8.85c.3-.28.39-.71.24-1.09s-.52-.63-.93-.63z" fill="#128b93" opacity="1" data-original="#000000" class=""></path><path d="M55.87 18.99 39.11 2.29a.984.984 0 0 0-.7-.29H8.84c-.55 0-1 .45-1 1v58c0 .55.45 1 1 1h46.32c.55 0 1-.45 1-1V19.7c0-.27-.1-.52-.29-.71zM9.84 60V4h27.57v15.7c0 .55.44 1 1 1h15.75V60z" fill="#128b93" opacity="1" data-original="#000000" class=""></path></g></svg>