<svg width="100" height="100" viewBox="0 0 100 100" fill="none" xmlns="http://www.w3.org/2000/svg">
<circle cx="50" cy="50" r="50" fill="#15CD71"/>
<path d="M80.3911 39.3412L53.6441 66.0882L45.025 68.827C44.2381 69.077 43.4966 68.3355 43.7466 67.5487L46.4855 58.9296L73.2324 32.1826C74.2071 31.208 75.7873 31.208 76.7619 32.1826L80.391 35.8117C81.3658 36.7864 81.3658 38.3666 80.3911 39.3412Z" fill="#D16FFF"/>
<path d="M53.6412 66.0859L45.7437 68.5994L45.023 68.8279C44.6188 68.9568 44.2262 68.822 43.9743 68.5584C43.7342 68.3065 43.6229 67.9316 43.7458 67.5508L43.9918 66.7716L46.4877 58.9326L48.257 60.702L51.8308 64.2757L53.6001 66.0451L53.6412 66.0859Z" fill="white"/>
<path d="M80.3933 39.3404L77.0421 42.6857L77.0011 42.6446L75.2318 40.8753L71.658 37.3016L69.8887 35.5322L73.234 32.1811C74.2066 31.2085 75.7884 31.2085 76.761 32.1811L80.3524 35.7724C80.4109 35.8311 80.4695 35.8954 80.5222 35.9599C81.3659 36.9383 81.319 38.4147 80.3933 39.3404Z" fill="#1C85E8"/>
<path d="M70.3266 25.9949V35.0818L69.8814 35.5271L46.4876 58.9324L43.7458 67.5504C43.4939 68.3296 44.238 69.0737 45.0288 68.8277L53.6469 66.0917L70.3266 49.4003V72.0031C70.3266 74.8269 68.03 77.1235 65.212 77.1235H30.0013C27.1715 77.1235 24.8809 74.8269 24.8809 72.0031V25.9949C24.8809 23.171 27.1716 20.8804 30.0013 20.8804H65.2119C68.03 20.8803 70.3266 23.171 70.3266 25.9949Z" fill="white"/>
<path d="M30.0059 78.0005H65.2123C68.5181 78.0005 71.2078 75.3112 71.2078 72.0054V49.7692L81.0142 39.9629C82.3301 38.6473 82.3301 36.5066 81.0142 35.1904L77.3851 31.5611C76.0667 30.2432 73.931 30.2422 72.613 31.5613L71.2078 32.9665V25.9947C71.2078 22.6889 68.5181 19.9995 65.2123 19.9995H30.0059C26.6956 19.9995 24.002 22.6888 24.002 25.9947V72.0053C24.002 75.3111 26.6956 78.0005 30.0059 78.0005ZM53.6458 64.8454L47.7302 58.9298L69.8867 36.7729L75.8026 42.6887L53.6458 64.8454ZM46.8876 60.5729L52.0034 65.688L44.7607 67.9895C44.6542 68.0255 44.5517 67.9248 44.5862 67.8147L46.8876 60.5729ZM76.1424 32.804L79.7715 36.433C80.4013 37.0635 80.4013 38.0893 79.7715 38.7198L77.0452 41.4461L71.1294 35.5302L73.8555 32.804C74.4666 32.1934 75.5314 32.1934 76.1424 32.804ZM25.7596 25.9947C25.7596 23.658 27.6642 21.7572 30.0059 21.7572H65.2123C67.549 21.7572 69.4502 23.6582 69.4502 25.9947V34.724L69.2654 34.9088L69.2653 34.9089C44.6147 59.5731 45.925 58.2237 45.7873 58.4086C45.7436 58.4673 45.6976 58.5143 45.6498 58.6637L42.911 67.2827C42.4469 68.7422 43.8241 70.1315 45.2928 69.6648L53.9121 66.926C54.0605 66.8786 54.1148 66.8281 54.1735 66.7834C54.3588 66.6427 53.3322 67.6317 69.4502 51.5267V72.0053C69.4502 74.342 67.549 76.2428 65.2123 76.2428H30.0059C27.6642 76.2428 25.7596 74.3419 25.7596 72.0053V25.9947Z" fill="#002245"/>
<path d="M32.1949 30.0023H63.0153C63.2459 29.9986 63.4658 29.9043 63.6275 29.7399C63.7893 29.5755 63.8799 29.3541 63.8799 29.1235C63.8799 28.8929 63.7893 28.6715 63.6275 28.5071C63.4658 28.3426 63.2459 28.2484 63.0153 28.2446H32.1949C31.9643 28.2484 31.7444 28.3426 31.5827 28.5071C31.4209 28.6715 31.3303 28.8929 31.3303 29.1235C31.3303 29.3541 31.4209 29.5755 31.5827 29.7399C31.7444 29.9043 31.9643 29.9986 32.1949 30.0023ZM32.1949 39.9406H59.7004C59.9304 39.936 60.1494 39.8414 60.3105 39.6771C60.4715 39.5128 60.5617 39.2919 60.5617 39.0618C60.5617 38.8317 60.4715 38.6108 60.3105 38.4465C60.1494 38.2822 59.9304 38.1876 59.7004 38.183H32.1949C31.9636 38.1857 31.7426 38.2794 31.58 38.444C31.4174 38.6085 31.3262 38.8305 31.3262 39.0618C31.3262 39.2931 31.4174 39.5151 31.58 39.6797C31.7426 39.8442 31.9636 39.9379 32.1949 39.9406ZM32.1949 49.879H50.9358C51.1664 49.8752 51.3863 49.781 51.548 49.6166C51.7098 49.4522 51.8004 49.2308 51.8004 49.0001C51.8004 48.7695 51.7098 48.5481 51.548 48.3837C51.3863 48.2193 51.1664 48.125 50.9358 48.1213H32.1949C31.9643 48.125 31.7444 48.2193 31.5827 48.3837C31.4209 48.5481 31.3303 48.7695 31.3303 49.0001C31.3303 49.2308 31.4209 49.4522 31.5827 49.6166C31.7444 49.781 31.9643 49.8752 32.1949 49.879ZM32.1949 59.8169H43.0723C43.3054 59.8169 43.529 59.7243 43.6938 59.5595C43.8586 59.3947 43.9512 59.1711 43.9512 58.9381C43.9512 58.705 43.8586 58.4814 43.6938 58.3166C43.529 58.1518 43.3054 58.0592 43.0723 58.0592H32.1949C31.9643 58.063 31.7444 58.1572 31.5827 58.3216C31.4209 58.486 31.3303 58.7074 31.3303 58.9381C31.3303 59.1687 31.4209 59.3901 31.5827 59.5545C31.7444 59.7189 31.9643 59.8131 32.1949 59.8169ZM32.1949 69.7553H40.1934C40.4264 69.7553 40.65 69.6627 40.8148 69.4979C40.9796 69.3331 41.0722 69.1095 41.0722 68.8764C41.0722 68.6433 40.9796 68.4198 40.8148 68.255C40.65 68.0902 40.4264 67.9976 40.1934 67.9976H32.1949C31.9643 68.0013 31.7444 68.0956 31.5827 68.26C31.4209 68.4244 31.3303 68.6458 31.3303 68.8764C31.3303 69.1071 31.4209 69.3285 31.5827 69.4929C31.7444 69.6573 31.9643 69.7515 32.1949 69.7553Z" fill="#002245"/>
</svg>
