<svg width="100" height="100" viewBox="0 0 100 100" fill="none" xmlns="http://www.w3.org/2000/svg">
<circle cx="50" cy="50" r="50" fill="#4F15CD"/>
<path d="M72.1571 72.225C72.1571 72.2309 72.1571 72.2369 72.1571 72.2443C66.1733 77.6707 58.2303 80.976 49.5177 80.976C40.8038 80.976 32.8606 77.6707 26.877 72.2443C26.877 72.2369 26.877 72.231 26.877 72.225C26.877 63.1998 32.158 55.4093 39.7975 51.7734C42.6685 54.637 46.0301 56.18 49.5179 56.18C53.0071 56.18 56.3672 54.637 59.2397 51.7734C66.8789 55.4093 72.1571 63.1997 72.1571 72.225Z" fill="white"/>
<path d="M49.5174 23.2676C56.4334 23.2676 62.0406 28.8733 62.0406 35.7894C62.0406 42.7068 56.4334 52.1663 49.5174 52.1663C42.6013 52.1663 36.9941 42.7068 36.9941 35.7894C36.9941 28.8733 42.6013 23.2676 49.5174 23.2676Z" fill="#FFE3C3"/>
<path d="M38.9638 47.7637C39.3477 48.3107 39.745 48.8235 40.1556 49.3051L38.9061 49.8994C34.747 51.8782 31.2282 54.9745 28.7278 58.8534C26.6941 62.0091 25.4194 65.5664 24.9762 69.2749C20.457 68.0431 16.3719 65.7592 13 62.7013V62.685C13 54.8204 17.6023 48.0319 24.2588 44.8628C26.7609 47.3588 29.6896 48.7032 32.7282 48.7032C34.7188 48.7032 36.6634 48.1267 38.4703 47.0268C38.6289 47.276 38.7949 47.5221 38.9638 47.7637Z" fill="#FADF31"/>
<path d="M34.9206 35.7889C34.9206 38.3887 35.5966 41.2494 36.8 43.9381C35.5417 44.7356 34.1676 45.2053 32.7284 45.2053C26.7018 45.2053 21.8164 36.9628 21.8164 30.9345C21.8164 24.9079 26.7018 20.0239 32.7284 20.0239C36.0708 20.0239 39.0635 21.5269 41.0644 23.894C37.3484 26.5442 34.9206 30.8886 34.9206 35.7889Z" fill="#FFE3C3"/>
<path d="M60.0355 47.7637C59.6517 48.3107 59.2543 48.8235 58.8438 49.3051L60.0933 49.8994C64.2524 51.8782 67.7711 54.9745 70.2716 58.8534C72.3053 62.0091 73.5799 65.5664 74.0231 69.2749C78.5423 68.0431 82.6274 65.7592 85.9994 62.7013V62.685C85.9994 54.8204 81.397 48.0319 74.7405 44.8628C72.2385 47.3588 69.3097 48.7032 66.2712 48.7032C64.2805 48.7032 62.3359 48.1267 60.529 47.0268C60.3705 47.276 60.2045 47.5221 60.0355 47.7637Z" fill="#FADF31"/>
<path d="M64.0793 35.7889C64.0793 38.3887 63.4033 41.2494 62.1999 43.9381C63.4583 44.7356 64.8323 45.2053 66.2715 45.2053C72.2981 45.2053 77.1835 36.9628 77.1835 30.9345C77.1835 24.9079 72.2981 20.0239 66.2715 20.0239C62.9291 20.0239 59.9365 21.5269 57.9355 23.894C61.6515 26.5442 64.0793 30.8886 64.0793 35.7889Z" fill="#FFE3C3"/>
</svg>
