<svg width="512" height="512" viewBox="0 0 512 512" fill="none" xmlns="http://www.w3.org/2000/svg">
<path d="M312.123 133.431H127.187L145.943 105.56C148.444 101.873 149.894 97.5744 150.136 93.1255C150.379 88.6767 149.404 84.2459 147.318 80.3091C145.231 76.3723 142.112 73.0784 138.294 70.7812C134.477 68.484 130.105 67.2703 125.65 67.2705H125.599C121.591 67.2702 117.635 68.1715 114.022 69.9075C110.41 71.6435 107.235 74.1698 104.731 77.2993L47.0275 149.44C45.2118 151.71 44.2227 154.53 44.2227 157.436C44.2227 160.343 45.2118 163.163 47.0275 165.432L104.738 237.568C107.241 240.698 110.416 243.225 114.029 244.961C117.641 246.697 121.597 247.599 125.605 247.599H125.65C130.105 247.599 134.476 246.385 138.293 244.088C142.111 241.79 145.23 238.497 147.317 234.56C149.403 230.624 150.377 226.193 150.135 221.745C149.893 217.296 148.444 212.997 145.943 209.311L127.183 181.431H312.123C340.673 181.431 368.054 192.772 388.242 212.96C408.43 233.148 419.771 260.528 419.771 289.079C419.771 317.629 408.43 345.009 388.242 365.197C368.054 385.385 340.673 396.727 312.123 396.727H259.779C253.414 396.727 247.31 399.255 242.809 403.756C238.308 408.257 235.779 414.361 235.779 420.727C235.779 427.092 238.308 433.196 242.809 437.697C247.31 442.198 253.414 444.727 259.779 444.727H312.123C353.404 444.727 392.994 428.328 422.183 399.138C451.373 369.949 467.771 330.359 467.771 289.079C467.771 247.798 451.373 208.208 422.183 179.019C392.994 149.829 353.404 133.431 312.123 133.431Z" fill="#1D1D1D"/>
</svg>
